# xmcd
#
# Track frame offsets:
#	150
#	11570
#	22187
#	32712
#	41472
#	53422
#	63412
#	75462
#	85515
#	96350
#	108202
#	117077
#	127667
#	137342
#	147740
#	156637
#	168302
#	179917
#	192527
#	204630
#	214465
#	224865
#	237222
#	249910
#	260122
#	270100
#	282207
#	292380
#	304170
#	315780
#	326462
#	334475
#	343420
#
# Disc length: 4698 seconds
#
# Revision: 1
# Processed by: cddbd v1.5.2PL0 Copyright (c) Steve Scherf et al.
# Submitted via: audiograbber 1.83.01
#
DISCID=f9125821
DTITLE=Frankie Miiller - Blackland Farmer: The Complete Starday Recordings, And
DTITLE=More (Disk 1)
DYEAR=2008
DGENRE=Country
TTITLE0=Blackland Farmer
TTITLE1=True Blue
TTITLE2=Poppin' Johnny
TTITLE3=Family Man
TTITLE4=The Money Side Of Life
TTITLE5=Reunion
TTITLE6=Baby Rocked Her Dolly
TTITLE7=Rain, Rain
TTITLE8=Strictly Nuthin'
TTITLE9=Young Widow Brown
TTITLE10=Two Lips Away
TTITLE11=Out Of Bounds
TTITLE12=I'll Write To You
TTITLE13=Richest Poor Boy
TTITLE14=Lookin' Around Downtown
TTITLE15=A Little Bit's Better (Than Nothing At All)
TTITLE16=The Cat And The Mouse
TTITLE17=It's Not Easy
TTITLE18=Losing Again
TTITLE19=If I'd Known Then
TTITLE20=Just For You
TTITLE21=Prison Grey
TTITLE22=Tornado
TTITLE23=Big Talk Of The Town (LP Version)
TTITLE24=Reunion (w/o harmony)
TTITLE25=Baby Rocked Her Dolly (w/o harmony)
TTITLE26=Rain, Rain (w/o harmony)
TTITLE27=The Cat And The Mouse (alt)
TTITLE28=Faded Bible
TTITLE29=Who Do You Think
TTITLE30=Trust The Saviour
TTITLE31=Valley Of Death
TTITLE32=Family Bible
EXTD=Bear Family
EXTT0=
EXTT1=
EXTT2=
EXTT3=
EXTT4=
EXTT5=
EXTT6=
EXTT7=
EXTT8=
EXTT9=
EXTT10=
EXTT11=
EXTT12=
EXTT13=
EXTT14=
EXTT15=
EXTT16=
EXTT17=
EXTT18=
EXTT19=
EXTT20=
EXTT21=
EXTT22=
EXTT23=
EXTT24=
EXTT25=
EXTT26=
EXTT27=
EXTT28=
EXTT29=
EXTT30=
EXTT31=
EXTT32=
PLAYORDER=
